<?xml version="1.0" encoding="utf-8"?>
<!-- Generator: Adobe Illustrator 18.0.0, SVG Export Plug-In . SVG Version: 6.00 Build 0)  -->
<!DOCTYPE svg PUBLIC "-//W3C//DTD SVG 1.1//EN" "http://www.w3.org/Graphics/SVG/1.1/DTD/svg11.dtd">
<svg version="1.1" id="Layer_1" xmlns="http://www.w3.org/2000/svg" xmlns:xlink="http://www.w3.org/1999/xlink" x="0px" y="0px"
	 width="160px" height="160px" viewBox="0 0 160 160" style="enable-background:new 0 0 160 160;" xml:space="preserve">
<style type="text/css">
	.st0{fill:#FFFFFF;stroke:#000000;stroke-miterlimit:10;}
	.st1{fill:#FFFFFF;}
	.st2{fill:none;stroke:#000000;stroke-linecap:round;stroke-linejoin:round;}
	.st3{fill:none;stroke:#000000;stroke-miterlimit:10;}
	.st4{font-family:'ArialMT';}
	.st5{font-size:12;}
	.st6{enable-background:new    ;}
</style>
<g transform="translate(80,80)">
	<circle id="circ" class="st0" cx="0" cy="0" r="79"/>
	<g id="hand" transform="rotate(180)">
		<g>
			<line class="st1" x1="0" y1="0" x2="0" y2="55"/>
			<g>
				<line class="st2" x1="0" y1="0" x2="0" y2="38.7"/>
				<g>
					<g>
						<path d="M-4,38.3c0,0.5,0,1.3,0,2.4c0,0.5,0.2,0.6,1.1,0.8c0.4,0.1,0.2,0.4,0.3,0.8c0.2,0.4,1.1,0.5,1.1,0.5
							c0.2,0,0.2,0.1,0.2,0.2C-2,44.4-1.1,46-1.3,46c-0.8,0.3-0.7,1-0.5,1.1c-0.3,0-0.6,0.5-0.5,0.7c0.3,0.6,0.5,0.6,0.7,1
							c0.3,0.7,0.7,0.6,0.7,1.3c0,0.5,0.1,0.7,0.2,0.8c0.5,0.5,1.2,0.1,1.4-0.3c0.5,0.1,1.2-0.7,1.7-0.8c0,0.2,0.1,0.6,0.3,1.2
							c0.1,0.3,0,0.2,0,0.7c0.1,0.7,0.1,1,0.2,1.2c0.1,0.1,0,0.8,0.2,1.2C3.2,55.2,4.2,55,4.3,55c0,0,0,0,0-0.2
							c0-0.3,0.1-0.8,0.1-1.2c0-0.2,0.1-0.4,0-0.8c0.1-0.5,0-0.8,0.2-1.4c0-0.1-0.1-0.1,0-0.3c0-0.1,0.1-0.1,0.1-0.4
							c0-0.3,0-0.8,0-1.2c0-0.4,0.1-0.7,0.2-1.7c0-0.4,0.2-0.7,0.1-1c-0.2-0.5-0.9-2-1.8-3.8c0,0-0.1-0.2,0.1-0.3
							c0.4-0.2,0.3-0.3,0.2-1c0-0.5,0.4-0.1,0.4-0.7c0-0.8-0.1-1.1-0.1-2.3c0-0.5,0-0.6-0.3-0.6h-7.2C-3.9,38.1-4,38.2-4,38.3z"/>
						<path class="st1" d="M4.1,54.7c-0.3,0-0.2-0.6-0.2-0.8c0-0.1,0.2-0.2,0.3-0.1L4.1,54.7C4.1,54.7,4.1,54.7,4.1,54.7z"/>
						<path class="st1" d="M0.4,50c-0.1-0.3-0.2-0.3-0.2-0.5c0-0.2,0.1,0,0.1-0.9c0-0.2,0-0.4-0.1-0.5c0.1-0.1,0.2-0.3,0-0.4
							c0.1-0.3,0.1-0.2,0-0.7c-0.2-0.7,0.1-0.8,0.3-1.1c0-0.1,0.1-0.1,0-0.3c-0.2-1.3-0.1-0.7,0-2.5c0.1-0.6,0.4-0.8,1.3-0.8
							c0.9,0,0.8,0.2,1,0.8c0.9,2.1,1.7,3.5,1.7,4c0,1.5-0.3,1.3-0.2,3.3C4.3,51,4,51,4.1,51.2c0.1,0.2,0.2,0,0.1,0.7
							c-0.1,1.3,0.1,1.5-0.1,1.6c-0.3,0.2-0.4,0.2-0.4,1c0,0.1,0,0.1,0,0.1c0,0.1,0,0.1-0.1,0c-0.1-0.1-0.4-0.7-0.3-1.5
							c0.1-0.4-0.1-0.2-0.1-0.9c0-0.3,0-0.5,0-0.6c-0.1-0.3-0.1-0.9-0.1-1.1c0.1-0.2,0.1-0.4,0-0.6C3.1,49.6,3,49.1,3,48.4
							c0.1-0.8,0.3-0.8,0.2-0.9c-0.1-0.2-0.4,0.2-0.7-0.2C2.3,47.1,3,46.8,3,46.6c0-0.1-0.1-0.2-0.3-0.1c-0.1,0-0.4,0.3-0.6,0.1
							c-0.3-0.3,0.5-1,0.2-1.4c-0.1-0.1-0.2,0-0.2,0.1c0,0.2-0.2,0.6-0.3,0.8c-0.2,0.2-0.5,0.8-0.6,1c-0.3,0.8-0.1,1-0.3,1.2
							c-0.2,0.1,0.1,0.4,0.1,0.6c0.1,0.5-0.3,1.7-0.6,1.6c-0.1,0-0.1-0.1-0.1-0.2C0.4,50.2,0.4,50.2,0.4,50z"/>
						<path class="st1" d="M-0.3,49.7C0,49.9,0,49.9,0.1,50.1c0,0.2-0.1,0.9-0.4,0.8c-0.1-0.1-0.1-0.3-0.1-0.5
							C-0.5,50.2-0.6,49.6-0.3,49.7z"/>
						<path class="st1" d="M-2.4,41.8c0,0.3,0.2,0.3,0.3,0.3c0.2,0.1,1.2-0.1,2.5-0.1c1.3,0,1.6,0,2.3,0.1c0.2,0,0.4,0.1,0.4-0.1
							c0-0.8,0.1-1-0.5-1.1c-0.7-0.1-3.4-0.2-4.8,0C-2.2,41-2.5,40.8-2.4,41.8z"/>
					</g>
				</g>
			</g>
		</g>
		<circle class="st3" cx="0" cy="65" r="12"/>
		<circle class="st3" cx="0" cy="0" r="2"/>
	</g>
	<text transform="matrix(1 0 0 1 -6.6738 -65)" class="st4 st5">12</text>
	<text transform="matrix(1 0 0 1 28.6631 -56)" class="st4 st5">1</text>
	<text transform="matrix(1 0 0 1 52.6631 -32)" class="st4 st5">2</text>
	<text transform="matrix(1 0 0 1 61.6631 0)" class="st4 st5">3</text>
	<text transform="matrix(1 0 0 1 52.6631 32)" class="st4 st5">4</text>
	<text transform="matrix(1 0 0 1 28.6631 56)" class="st4 st5">5</text>
	<text transform="matrix(1 0 0 1 -3.3369 65)" class="st4 st5">6</text>
	<text transform="matrix(1 0 0 1 -35.3369 56)" class="st4 st5">7</text>
	<text transform="matrix(1 0 0 1 -59.3369 32)" class="st4 st5">8</text>
	<text transform="matrix(1 0 0 1 -68.3369 0)" class="st4 st5">9</text>
	<text transform="matrix(1 0 0 1 -62.6738 -32)" class="st4 st5">10</text>
	<text transform="matrix(1 0 0 1 -38.2285 -56)" class="st6"><tspan x="0" y="0" class="st4 st5">1</tspan><tspan x="5.8" y="0" class="st4 st5">1</tspan></text>
</g>
</svg>
